<svg width="18" height="18" viewBox="0 0 18 18" fill="none" xmlns="http://www.w3.org/2000/svg">
<path fill-rule="evenodd" clip-rule="evenodd" d="M8.95347 0.9375H9.04647C10.557 0.9375 11.7487 0.9375 12.6165 1.05225C13.4707 1.16475 14.2372 1.41225 14.601 2.1195C14.6535 2.2215 14.6985 2.32725 14.7337 2.436C14.982 3.1935 14.6145 3.9105 14.091 4.5885C13.5585 5.27775 12.7155 6.1125 11.6475 7.17L9.79947 9L11.6475 10.83C12.7155 11.8875 13.5585 12.7222 14.091 13.4115C14.6145 14.0895 14.982 14.8065 14.7337 15.564C14.6979 15.6729 14.6536 15.7787 14.601 15.8805C14.2372 16.5877 13.4707 16.8352 12.6172 16.9478C11.7487 17.0625 10.557 17.0625 9.04722 17.0625H8.95347C7.44297 17.0625 6.25122 17.0625 5.38272 16.9478C4.52922 16.8352 3.76272 16.5877 3.39822 15.8805C3.3459 15.7787 3.30176 15.6728 3.26622 15.564C3.01797 14.8065 3.38547 14.0895 3.90897 13.4115C4.44147 12.7222 5.28447 11.8875 6.35247 10.83L8.20047 9L6.35247 7.17C5.28447 6.1125 4.44147 5.27775 3.90897 4.5885C3.38547 3.9105 3.01797 3.1935 3.26622 2.436C3.30147 2.32725 3.34647 2.2215 3.39822 2.1195C3.76272 1.41225 4.52922 1.16475 5.38272 1.05225C6.25122 0.9375 7.44372 0.9375 8.95347 0.9375ZM8.99997 8.208L10.8225 6.4035C11.931 5.30625 12.72 4.52325 13.2 3.90075C13.6965 3.25875 13.7227 2.96475 13.665 2.78625C13.6477 2.73415 13.6264 2.6835 13.6012 2.63475C13.5135 2.4645 13.2795 2.274 12.4702 2.1675C11.6842 2.064 10.5675 2.0625 8.99997 2.0625C7.43247 2.0625 6.31497 2.064 5.52972 2.1675C4.71972 2.274 4.48647 2.4645 4.39872 2.63475C4.37349 2.68348 4.35218 2.73414 4.33497 2.78625C4.27722 2.96475 4.30347 3.25875 4.79997 3.90075C5.27997 4.52325 6.06897 5.30625 7.17747 6.4035L8.99997 8.208ZM8.99997 9.79125L7.17747 11.5965C6.06897 12.6938 5.27997 13.4767 4.79997 14.0992C4.30347 14.7413 4.27722 15.0352 4.33497 15.2137C4.35222 15.2662 4.37322 15.3165 4.39872 15.3652C4.48647 15.5355 4.72047 15.726 5.52972 15.8325C6.31572 15.936 7.43247 15.9375 8.99997 15.9375C10.5675 15.9375 11.685 15.936 12.4702 15.8325C13.2802 15.726 13.5135 15.5355 13.6012 15.3652C13.6267 15.3165 13.6477 15.2662 13.665 15.2137C13.7227 15.0352 13.6965 14.7413 13.2 14.0992C12.72 13.4767 11.931 12.6938 10.8225 11.5965L8.99997 9.79125Z" fill="black"/>
</svg>
