<svg width="18" height="18" viewBox="0 0 18 18" fill="none" xmlns="http://www.w3.org/2000/svg">
<path d="M9.50035 5.66772V16.382M3.07178 8.88201H15.9289V14.2392C15.9289 14.8075 15.7032 15.3525 15.3013 15.7544C14.8994 16.1562 14.3544 16.382 13.7861 16.382H5.21463C4.64631 16.382 4.10127 16.1562 3.69941 15.7544C3.29754 15.3525 3.07178 14.8075 3.07178 14.2392V8.88201Z" stroke="black" stroke-width="0.952381" stroke-linecap="round" stroke-linejoin="round"/>
<path d="M9.5 5.66729H6.28571C5.44893 4.8305 5.44893 3.28979 6.28571 2.453C7.1225 1.61622 9.5 1.91729 9.5 3.52443M9.5 5.66729V3.52443M9.5 5.66729H12.7143C13.5511 4.8305 13.5511 3.28979 12.7143 2.453C11.8775 1.61622 9.5 1.91729 9.5 3.52443M3.07143 5.66729H15.9286C16.2127 5.66729 16.4853 5.78017 16.6862 5.9811C16.8871 6.18204 17 6.45456 17 6.73872V7.81015C17 8.09431 16.8871 8.36683 16.6862 8.56776C16.4853 8.76869 16.2127 8.88158 15.9286 8.88158H3.07143C2.78727 8.88158 2.51475 8.76869 2.31381 8.56776C2.11288 8.36683 2 8.09431 2 7.81015V6.73872C2 6.45456 2.11288 6.18204 2.31381 5.9811C2.51475 5.78017 2.78727 5.66729 3.07143 5.66729Z" stroke="black" stroke-width="0.952381" stroke-linecap="round" stroke-linejoin="round"/>
</svg>
