<svg width="18" height="18" viewBox="0 0 18 18" fill="none" xmlns="http://www.w3.org/2000/svg">
<path d="M16 8.16871C15.786 6.61459 15.0717 5.1746 13.9671 4.07054C12.8624 2.96649 11.4288 2.25962 9.88696 2.05883C8.34514 1.85803 6.78067 2.17445 5.43455 2.95935C4.08843 3.74424 3.03534 4.95406 2.4375 6.40245M2 2.86993V6.40245H5.5M2 9.93497C2.25085 11.7615 3.19136 13.4195 4.625 14.5626M8.125 11.7012H9.875C10.1071 11.7012 10.3296 11.7943 10.4937 11.9599C10.6578 12.1255 10.75 12.3501 10.75 12.5844V13.4675C10.75 13.7017 10.6578 13.9263 10.4937 14.092C10.3296 14.2576 10.1071 14.3506 9.875 14.3506H9C8.76794 14.3506 8.54538 14.4437 8.38128 14.6093C8.21719 14.7749 8.125 14.9995 8.125 15.2337V16.1169C8.125 16.3511 8.21719 16.5757 8.38128 16.7413C8.54538 16.907 8.76794 17 9 17H10.75M13.375 11.7012V13.4675C13.375 13.7017 13.4672 13.9263 13.6313 14.092C13.7954 14.2576 14.0179 14.3506 14.25 14.3506H15.125M16 11.7012V17" stroke="black" stroke-width="1.1" stroke-linecap="round" stroke-linejoin="round"/>
</svg>
